# xmcd
#
# Track frame offsets: 
#        150
#        19648
#        36729
#        61350
#        89661
#        110720
#        145193
#        161770
#        186246
#        211280
#        230970
#
# Disc length: 3404 seconds
#
# Revision: 0
# Processed by: cddbd v1.5.2PL0 Copyright (c) Steve Scherf et al.
# Submitted via: ExactAudioCopyFreeDBPlugin 1.0
#
DISCID=a90d4a0b
DTITLE=Little Freddie King - Messin' Around Tha Living Room
DYEAR=2015
DGENRE=Blues
TTITLE0=Bad Bad Julie
TTITLE1=Old Yellow Boy
TTITLE2=Hey Tom, I Saw You
TTITLE3=I Wanna See Dr. Bones
TTITLE4=Run Here Baby, Run
TTITLE5=Back At The Bucket Of Blood
TTITLE6=Brother Hay Shaker
TTITLE7=Soul Serenade
TTITLE8=Do Da Duck Quack Quack
TTITLE9=Two Days Two Night
TTITLE10=Tryin' To Make It To My Shack
EXTD=
EXTT0=
EXTT1=
EXTT2=
EXTT3=
EXTT4=
EXTT5=
EXTT6=
EXTT7=
EXTT8=
EXTT9=
EXTT10=
PLAYORDER=
